HIERARCHY
ROOT Hips
{
	OFFSET 0.000000 83.214638 0.000000
	CHANNELS 6 Xposition Yposition Zposition Xrotation Yrotation Zrotation
	JOINT Pelvis
	{
		OFFSET 0.000000 0.000000 0.000000
		CHANNELS 3 Xrotation Yrotation Zrotation
		JOINT LeftUpLeg
		{
			OFFSET 8.479700 -4.795502 -0.379100
			CHANNELS 3 Xrotation Yrotation Zrotation
			JOINT LeftLeg
			{
				OFFSET 0.024144 -32.555107 0.112900
				CHANNELS 3 Xrotation Yrotation Zrotation
				JOINT LeftFoot
				{
					OFFSET -0.024144 -32.638630 -3.012600
					CHANNELS 3 Xrotation Yrotation Zrotation
					JOINT LeftToeBase
					{
						OFFSET 0.970200 -13.225400 11.864200
						CHANNELS 3 Xrotation Yrotation Zrotation
						End Site
						{
							OFFSET 0.000000 12.319262 0.000000
						}
					}
					JOINT LFootTongue
					{
						OFFSET 1.142400 -1.059800 6.665200
						CHANNELS 3 Xrotation Yrotation Zrotation
						End Site
						{
							OFFSET 0.000000 12.319262 0.000000
						}
					}
				}
				JOINT LeftPantLeg
				{
					OFFSET 0.918482 -16.533964 -2.284700
					CHANNELS 3 Xrotation Yrotation Zrotation
					End Site
					{
						OFFSET 0.350399 24.744368 0.000000
					}
				}
			}
		}
		JOINT RightUpLeg
		{
			OFFSET -8.479700 -4.795502 -0.379100
			CHANNELS 3 Xrotation Yrotation Zrotation
			JOINT RightLeg
			{
				OFFSET -0.023144 -32.555092 0.112900
				CHANNELS 3 Xrotation Yrotation Zrotation
				JOINT RightFoot
				{
					OFFSET 0.023144 -32.638641 -3.012700
					CHANNELS 3 Xrotation Yrotation Zrotation
					JOINT RightToeBase
					{
						OFFSET -0.970200 -13.225400 11.864200
						CHANNELS 3 Xrotation Yrotation Zrotation
						End Site
						{
							OFFSET 0.000000 12.319244 0.000000
						}
					}
					JOINT RFootTongue
					{
						OFFSET -1.142200 -1.059800 6.665200
						CHANNELS 3 Xrotation Yrotation Zrotation
						End Site
						{
							OFFSET 0.000000 12.319243 0.000000
						}
					}
				}
				JOINT RightPantLeg
				{
					OFFSET -0.919482 -16.533978 -2.284800
					CHANNELS 3 Xrotation Yrotation Zrotation
					End Site
					{
						OFFSET -0.350400 24.744419 0.000000
					}
				}
			}
		}
	}
	JOINT Spine
	{
		OFFSET 0.000000 7.722000 1.166200
		CHANNELS 3 Xrotation Yrotation Zrotation
		JOINT Spine1
		{
			OFFSET 0.000000 12.024101 0.248800
			CHANNELS 3 Xrotation Yrotation Zrotation
			JOINT Spine2
			{
				OFFSET 0.000000 11.502998 -0.491200
				CHANNELS 3 Xrotation Yrotation Zrotation
				JOINT Neck
				{
					OFFSET 0.000000 18.430702 -3.123100
					CHANNELS 3 Xrotation Yrotation Zrotation
					JOINT Head
					{
						OFFSET 0.000000 9.051102 1.034000
						CHANNELS 3 Xrotation Yrotation Zrotation
						JOINT HairB
						{
							OFFSET 0.208400 24.786102 24.822300
							CHANNELS 3 Xrotation Yrotation Zrotation
							End Site
							{
								OFFSET 0.000000 32.263779 0.000000
							}
						}
						JOINT HairA
						{
							OFFSET -7.081100 24.428299 23.196600
							CHANNELS 3 Xrotation Yrotation Zrotation
							End Site
							{
								OFFSET 0.000000 32.263779 0.000000
							}
						}
						JOINT Hat
						{
							OFFSET 16.728800 15.048294 -15.439601
							CHANNELS 3 Xrotation Yrotation Zrotation
							End Site
							{
								OFFSET 0.000000 32.263779 0.000000
							}
						}
					}
				}
				JOINT LeftShoulder
				{
					OFFSET 6.197800 13.665199 -4.064700
					CHANNELS 3 Xrotation Yrotation Zrotation
					JOINT LeftArm
					{
						OFFSET 7.778100 -0.187103 -1.709300
						CHANNELS 3 Xrotation Yrotation Zrotation
						JOINT LeftForeArm
						{
							OFFSET 22.049376 0.000000 0.000000
							CHANNELS 3 Xrotation Yrotation Zrotation
							JOINT LeftHand
							{
								OFFSET 23.009392 0.000000 0.000000
								CHANNELS 3 Xrotation Yrotation Zrotation
								JOINT LeftHandThumb1
								{
									OFFSET 3.507191 -2.063065 3.133727
									CHANNELS 3 Xrotation Yrotation Zrotation
									JOINT LeftHandThumb2
									{
										OFFSET 3.101337 -1.790558 1.790558
										CHANNELS 3 Xrotation Yrotation Zrotation
										JOINT LeftHandThumb3
										{
											OFFSET 3.058640 -1.765907 1.765906
											CHANNELS 3 Xrotation Yrotation Zrotation
											End Site
											{
												OFFSET -0.415260 3.926476 -0.049563
											}
										}
									}
								}
								JOINT LeftHandIndex1
								{
									OFFSET 11.334419 -0.901459 3.706815
									CHANNELS 3 Xrotation Yrotation Zrotation
									JOINT LeftHandIndex2
									{
										OFFSET 3.283112 0.000000 0.000000
										CHANNELS 3 Xrotation Yrotation Zrotation
										JOINT LeftHandIndex3
										{
											OFFSET 3.323853 0.000000 0.000000
											CHANNELS 3 Xrotation Yrotation Zrotation
											End Site
											{
												OFFSET -1.135597 3.097809 0.402452
											}
										}
									}
								}
								JOINT LeftHandMiddle1
								{
									OFFSET 11.335861 0.000000 0.000000
									CHANNELS 3 Xrotation Yrotation Zrotation
									JOINT LeftHandMiddle2
									{
										OFFSET 3.410492 0.000000 0.000000
										CHANNELS 3 Xrotation Yrotation Zrotation
										JOINT LeftHandMiddle3
										{
											OFFSET 3.312172 0.000000 0.000000
											CHANNELS 3 Xrotation Yrotation Zrotation
											End Site
											{
												OFFSET -1.150200 3.080154 0.400270
											}
										}
									}
								}
								JOINT LeftHandRing1
								{
									OFFSET 11.514786 -0.013176 -3.003090
									CHANNELS 3 Xrotation Yrotation Zrotation
									JOINT LeftHandRing2
									{
										OFFSET 3.053307 0.000000 0.000000
										CHANNELS 3 Xrotation Yrotation Zrotation
										JOINT LeftHandRing3
										{
											OFFSET 3.295807 0.000000 0.000000
											CHANNELS 3 Xrotation Yrotation Zrotation
											End Site
											{
												OFFSET -1.281006 3.013344 0.375733
											}
										}
									}
								}
								JOINT LeftHandPinky1
								{
									OFFSET 10.518692 -0.960396 -5.730441
									CHANNELS 3 Xrotation Yrotation Zrotation
									JOINT LeftHandPinky2
									{
										OFFSET 2.861649 0.000000 0.000000
										CHANNELS 3 Xrotation Yrotation Zrotation
										JOINT LeftHandPinky3
										{
											OFFSET 2.863380 0.000000 0.000000
											CHANNELS 3 Xrotation Yrotation Zrotation
											End Site
											{
												OFFSET -0.843597 2.711159 0.369971
											}
										}
									}
								}
							}
							JOINT LSleeve
							{
								OFFSET 6.676277 -0.344902 -1.011730
								CHANNELS 3 Xrotation Yrotation Zrotation
								End Site
								{
									OFFSET 0.000000 14.885353 0.000000
								}
							}
						}
					}
				}
				JOINT RightShoulder
				{
					OFFSET -6.197800 13.665199 -4.064700
					CHANNELS 3 Xrotation Yrotation Zrotation
					JOINT RightArm
					{
						OFFSET -7.778100 -0.187103 -1.709300
						CHANNELS 3 Xrotation Yrotation Zrotation
						JOINT RightForeArm
						{
							OFFSET -22.049376 0.000000 0.000000
							CHANNELS 3 Xrotation Yrotation Zrotation
							JOINT RightHand
							{
								OFFSET -23.009392 0.000000 0.000000
								CHANNELS 3 Xrotation Yrotation Zrotation
								JOINT RightHandThumb1
								{
									OFFSET -3.507191 -2.063065 3.133727
									CHANNELS 3 Xrotation Yrotation Zrotation
									JOINT RightHandThumb2
									{
										OFFSET -3.101337 -1.790558 1.790558
										CHANNELS 3 Xrotation Yrotation Zrotation
										JOINT RightHandThumb3
										{
											OFFSET -3.058640 -1.765907 1.765906
											CHANNELS 3 Xrotation Yrotation Zrotation
											End Site
											{
												OFFSET 0.415260 3.926476 -0.049563
											}
										}
									}
								}
								JOINT RightHandIndex1
								{
									OFFSET -11.334419 -0.901459 3.706815
									CHANNELS 3 Xrotation Yrotation Zrotation
									JOINT RightHandIndex2
									{
										OFFSET -3.283112 0.000000 0.000000
										CHANNELS 3 Xrotation Yrotation Zrotation
										JOINT RightHandIndex3
										{
											OFFSET -3.323853 0.000000 0.000000
											CHANNELS 3 Xrotation Yrotation Zrotation
											End Site
											{
												OFFSET 1.135597 3.097809 0.402452
											}
										}
									}
								}
								JOINT RightHandMiddle1
								{
									OFFSET -11.335861 0.000000 0.000000
									CHANNELS 3 Xrotation Yrotation Zrotation
									JOINT RightHandMiddle2
									{
										OFFSET -3.410492 0.000000 0.000000
										CHANNELS 3 Xrotation Yrotation Zrotation
										JOINT RightHandMiddle3
										{
											OFFSET -3.312172 0.000000 0.000000
											CHANNELS 3 Xrotation Yrotation Zrotation
											End Site
											{
												OFFSET 1.150200 3.080154 0.400270
											}
										}
									}
								}
								JOINT RightHandRing1
								{
									OFFSET -11.514786 -0.013176 -3.003090
									CHANNELS 3 Xrotation Yrotation Zrotation
									JOINT RightHandRing2
									{
										OFFSET -3.053307 0.000000 0.000000
										CHANNELS 3 Xrotation Yrotation Zrotation
										JOINT RightHandRing3
										{
											OFFSET -3.295807 0.000000 0.000000
											CHANNELS 3 Xrotation Yrotation Zrotation
											End Site
											{
												OFFSET 1.281006 3.013344 0.375733
											}
										}
									}
								}
								JOINT RightHandPinky1
								{
									OFFSET -10.518692 -0.960396 -5.730441
									CHANNELS 3 Xrotation Yrotation Zrotation
									JOINT RightHandPinky2
									{
										OFFSET -2.861649 0.000000 0.000000
										CHANNELS 3 Xrotation Yrotation Zrotation
										JOINT RightHandPinky3
										{
											OFFSET -2.863380 0.000000 0.000000
											CHANNELS 3 Xrotation Yrotation Zrotation
											End Site
											{
												OFFSET 0.843597 2.711159 0.369971
											}
										}
									}
								}
							}
							JOINT RSleeve
							{
								OFFSET -6.676277 -0.344902 -1.011730
								CHANNELS 3 Xrotation Yrotation Zrotation
								End Site
								{
									OFFSET 0.000000 14.885353 0.000000
								}
							}
						}
					}
				}
				JOINT Backpack
				{
					OFFSET 0.000000 -2.471497 36.677502
					CHANNELS 3 Xrotation Yrotation Zrotation
					End Site
					{
						OFFSET 0.000000 20.427315 0.000000
					}
				}
				JOINT Hood
				{
					OFFSET 0.000000 18.754097 -10.431000
					CHANNELS 3 Xrotation Yrotation Zrotation
					JOINT Hood1
					{
						OFFSET 0.000000 -5.011002 -7.685901
						CHANNELS 3 Xrotation Yrotation Zrotation
						End Site
						{
							OFFSET 0.000000 9.175140 0.000000
						}
					}
				}
				JOINT LHoodieString
				{
					OFFSET 5.250500 16.397697 3.089900
					CHANNELS 3 Xrotation Yrotation Zrotation
					JOINT LHoodieString1
					{
						OFFSET 0.257700 -6.364304 3.694600
						CHANNELS 3 Xrotation Yrotation Zrotation
						JOINT LHoodieString2
						{
							OFFSET 0.000000 -9.643799 2.679100
							CHANNELS 3 Xrotation Yrotation Zrotation
							End Site
							{
								OFFSET 0.000000 10.009018 0.000000
							}
						}
					}
				}
				JOINT RHoodieString
				{
					OFFSET -5.250500 16.397697 3.089900
					CHANNELS 3 Xrotation Yrotation Zrotation
					JOINT RHoodieString1
					{
						OFFSET -0.257700 -6.364304 3.694600
						CHANNELS 3 Xrotation Yrotation Zrotation
						JOINT RHoodieString2
						{
							OFFSET 0.000000 -9.643799 2.679100
							CHANNELS 3 Xrotation Yrotation Zrotation
							End Site
							{
								OFFSET 0.000000 10.009018 0.000000
							}
						}
					}
				}
			}
			JOINT LBackpack_Strap
			{
				OFFSET 15.223200 -7.719803 -6.610900
				CHANNELS 3 Xrotation Yrotation Zrotation
				End Site
				{
					OFFSET 0.000000 16.040596 0.000000
				}
			}
			JOINT RBackpack_Strap
			{
				OFFSET -15.223000 -7.719803 -6.610900
				CHANNELS 3 Xrotation Yrotation Zrotation
				End Site
				{
					OFFSET 0.000000 16.040596 0.000000
				}
			}
		}
	}
	JOINT BoyFacialAnim_Joint
	{
		OFFSET 1.000000 -82.208099 -1.550900
		CHANNELS 3 Xrotation Yrotation Zrotation
		End Site
		{
			OFFSET 0.000000 30.012791 0.000000
		}
	}
}
MOTION
Frames: 4
Frame Time: 0.033333
0.368821 50.403809 -1.283585 2.609044 4.555086 -1.225078 -0.000000 -0.000000 -0.000000 -93.219071 -1.383524 3.974540 79.924777 -1.385550 1.221109 10.516387 -0.330759 -2.756770 -0.000000 -0.000000 0.000000 -0.000000 -0.000000 0.000000 -0.000001 -0.000000 -0.000000 -91.503191 4.817939 -16.119772 86.410076 -1.921545 1.743393 3.074359 -0.073833 4.030711 -0.000000 -0.000000 0.000000 -0.000000 -0.000000 0.000000 0.000000 -0.000000 -0.000000 3.271694 1.142303 2.290649 1.605040 0.308424 1.453762 1.601223 0.329214 1.456698 -17.879731 -1.258019 2.053727 -3.281595 1.384192 -0.502034 -0.000000 0.000000 -0.000000 -0.000000 0.000000 -0.000000 -0.000000 0.000000 -0.000000 -0.038456 -8.953181 -11.700128 -4.182525 -23.981119 -55.402714 -0.000127 -77.313233 -0.000148 27.757003 18.661945 21.801532 1.914261 16.141535 7.082870 -8.896756 8.972633 -6.948910 0.000002 -0.000001 -0.000003 -0.362602 -1.398300 -10.361477 1.462446 4.247577 -37.983054 -0.000000 -0.000001 -0.000004 0.043226 0.783228 -5.376597 0.110816 1.232819 -10.272225 0.000001 0.000000 0.000000 0.076171 1.704861 -2.762126 0.104264 1.196075 -9.962805 0.000001 0.000001 -0.000005 -0.946274 2.558035 15.500397 0.402364 -1.741106 -20.068537 0.000001 0.000002 -0.000002 -0.000001 0.000001 0.000001 0.631064 0.134424 -0.009543 -9.445532 -1.252334 67.302116 -0.000007 111.761620 0.000007 24.941093 -9.584674 14.450244 -22.478624 -8.090885 1.456131 6.038090 -17.507913 -11.072870 0.000001 -0.000000 -0.000001 0.722351 -3.275538 36.459970 1.842057 -4.718481 42.632231 -0.000004 -0.000004 0.000003 1.280529 -4.054116 31.739022 1.881066 -4.760353 43.104497 0.000002 -0.000000 0.000003 2.252735 -5.627883 31.517823 2.963069 -5.696391 54.935806 0.000002 0.000001 -0.000001 4.886441 -7.298164 50.539643 1.940055 -4.822391 43.810421 0.000001 0.000002 0.000001 0.000000 -0.000001 0.000000 0.000000 -0.000000 0.000000 0.000000 -0.000000 0.000000 0.000000 -0.000000 0.000000 0.000000 -0.000000 0.000000 0.000000 -0.000000 -0.000000 -0.000001 0.000000 -0.000000 0.000000 -0.000000 0.000000 0.000000 -0.000000 -0.000000 -0.000001 0.000000 -0.000000 -0.000000 0.000000 0.000000 -0.000000 0.000000 0.000000 -0.000000 -0.000000 -0.000000 
0.336337 50.421898 -1.368081 2.231858 5.093497 -0.677910 -0.000000 -0.000000 -0.000000 -92.702469 -0.741718 3.837224 79.456615 -1.792587 1.012325 11.021303 -0.335560 -2.983418 -0.000000 0.000000 -0.000000 -0.000000 0.000000 -0.000000 0.000000 0.000001 0.000000 -91.149257 5.372850 -16.355856 86.540874 -2.230867 1.422136 2.940354 -0.085818 4.362172 -0.000000 0.000001 0.000000 -0.000000 0.000001 0.000000 -0.000000 0.000001 0.000000 3.271811 1.087458 2.286322 1.639371 0.271790 1.427172 1.636120 0.291323 1.429937 -18.187585 -1.457151 2.132385 -3.269710 0.596278 -0.133710 -0.000000 -0.000001 -0.000000 -0.000000 -0.000001 -0.000000 -0.000000 -0.000001 -0.000000 -0.096978 -9.242818 -12.119172 -4.048803 -24.793780 -54.305219 -0.000115 -76.133400 -0.000109 26.331836 18.151081 22.290013 1.091744 16.416568 7.567744 -8.695751 8.885919 -7.061695 -0.000004 0.000004 0.000001 -0.351831 -1.382544 -10.189419 1.531474 4.334302 -38.905847 -0.000001 0.000001 -0.000003 0.037860 0.731164 -5.115043 0.110651 1.231972 -10.264946 0.000001 -0.000002 0.000003 0.071275 1.630531 -2.712655 0.105044 1.200588 -10.000624 -0.000000 0.000001 -0.000000 -0.957217 2.518803 15.764879 0.403479 -1.738040 -20.095376 0.000003 0.000001 -0.000000 0.000001 0.000002 0.000000 0.626147 -0.026909 -0.261296 -9.104383 0.234279 67.082225 0.000094 110.143863 -0.000083 30.663188 -11.011768 15.452345 -23.095019 -8.036043 1.184759 5.729195 -17.143327 -11.137157 -0.000003 -0.000002 0.000002 0.448049 -2.582861 27.985525 1.476033 -4.288235 37.972867 -0.000002 -0.000001 0.000005 1.214408 -4.102963 25.966405 1.487674 -4.303091 38.128476 0.000003 0.000001 -0.000000 1.770205 -5.184068 26.421492 2.610473 -5.433068 51.300922 0.000003 0.000002 0.000004 4.702625 -7.820917 42.496426 1.621545 -4.467853 39.878736 -0.000002 -0.000003 0.000001 0.000002 -0.000002 -0.000001 -0.000000 -0.000000 -0.000000 -0.000000 -0.000000 -0.000000 -0.000000 -0.000000 -0.000000 -0.000000 -0.000000 -0.000000 -0.000000 -0.000000 -0.000001 -0.000000 -0.000000 -0.000001 -0.000000 -0.000000 -0.000000 -0.000000 -0.000000 -0.000001 -0.000000 -0.000000 -0.000001 -0.000000 -0.000000 -0.000000 -0.000000 -0.000000 -0.000000 -0.000000 -0.000000 -0.000000 
0.260989 50.432220 -1.468448 1.838705 5.568094 -0.195496 -0.000000 0.000000 0.000000 -92.234301 -0.215169 3.759433 79.099567 -2.253712 0.828613 11.295994 -0.346509 -3.295158 -0.000000 -0.000000 -0.000000 -0.000000 -0.000000 -0.000000 -0.000001 0.000000 -0.000000 -90.796942 5.762259 -16.574149 86.638866 -2.511991 1.113776 2.807316 -0.099725 4.681718 -0.000000 -0.000000 -0.000000 -0.000000 -0.000000 -0.000000 0.000000 0.000001 0.000001 3.293076 1.024053 2.269397 1.665349 0.225583 1.367021 1.662833 0.243380 1.369444 -18.322787 -1.607771 2.134097 -3.287001 -0.112348 0.095892 -0.000000 0.000000 -0.000000 -0.000000 0.000000 -0.000000 -0.000000 0.000000 -0.000000 -0.150861 -9.511825 -12.315876 -3.930732 -25.580483 -53.302062 0.000177 -74.864747 0.000170 24.895066 17.590922 22.807885 0.182052 16.766861 8.149987 -8.541657 8.820005 -7.147949 -0.000000 -0.000001 -0.000001 -0.338751 -1.369943 -9.951003 1.597870 4.415042 -39.776064 -0.000001 -0.000001 -0.000000 0.032893 0.680318 -4.830848 0.110429 1.230721 -10.254392 0.000003 -0.000000 0.000000 0.065971 1.549029 -2.654422 0.105715 1.204413 -10.032921 -0.000000 -0.000000 -0.000004 -0.965608 2.475013 16.015680 0.403054 -1.739215 -20.085177 -0.000001 -0.000000 -0.000002 -0.000002 0.000002 0.000000 0.617425 -0.231252 -0.601794 -8.871746 2.327536 67.006150 0.000098 107.705936 -0.000104 36.809652 -12.644167 16.679880 -23.679644 -7.978020 0.931626 5.440357 -16.795133 -11.193784 0.000002 0.000001 0.000001 0.116783 -1.471134 18.253754 1.115413 -3.782256 32.851687 -0.000002 0.000000 0.000005 0.954670 -3.911110 19.235339 1.084914 -3.734734 32.386585 0.000002 0.000000 -0.000004 1.144055 -4.248795 21.071204 2.240022 -5.115662 47.272842 -0.000003 -0.000000 -0.000001 4.173611 -8.394413 33.306335 1.304817 -4.059937 35.620939 -0.000000 -0.000001 -0.000002 0.000002 0.000000 -0.000001 -0.000000 -0.000000 -0.000000 -0.000000 -0.000000 -0.000000 -0.000000 -0.000000 -0.000000 -0.000000 -0.000000 -0.000000 -0.000000 -0.000000 -0.000000 -0.000000 -0.000000 0.000000 -0.000000 -0.000000 -0.000000 -0.000000 -0.000000 -0.000000 -0.000000 -0.000000 0.000000 -0.000000 0.000000 -0.000000 -0.000000 0.000000 -0.000000 -0.000000 0.000000 0.000000 
0.122561 50.420235 -1.583315 1.480731 5.929779 0.164940 -0.000000 -0.000000 0.000000 -91.894321 0.130199 3.885343 78.814646 -2.847686 0.661726 11.590533 -0.367458 -3.898739 0.000000 -0.000000 0.000000 0.000000 -0.000000 0.000000 0.000001 0.000000 0.000000 -90.532778 5.974112 -16.656678 86.713896 -2.811241 0.857006 2.765852 -0.105456 4.877812 -0.000000 -0.000000 0.000000 -0.000000 -0.000000 0.000000 0.000000 0.000000 0.000000 3.311020 0.975912 2.243491 1.672476 0.181389 1.280314 1.670655 0.196624 1.282379 -18.283528 -1.719048 2.088380 -3.327774 -0.725556 0.249143 0.000001 0.000000 0.000000 0.000001 0.000000 0.000000 0.000001 0.000000 0.000000 -0.201075 -9.767167 -12.375256 -3.808332 -26.251704 -52.333784 0.000005 -73.624399 0.000023 23.550462 17.037794 23.248854 -0.729888 16.994651 8.680160 -8.385282 8.753249 -7.235341 0.000006 -0.000000 -0.000000 -0.324090 -1.361998 -9.654443 1.672877 4.503343 -40.740617 -0.000002 -0.000001 -0.000002 0.027549 0.620555 -4.538806 0.110266 1.229765 -10.246347 0.000004 0.000000 -0.000001 0.059757 1.467324 -2.543058 0.106129 1.206723 -10.052222 0.000000 -0.000001 -0.000001 -0.971579 2.435544 16.224553 0.401214 -1.744237 -20.040728 0.000002 0.000001 -0.000000 -0.000001 -0.000001 -0.000002 0.597472 -0.432304 -1.081195 -8.867048 4.868004 67.255172 0.000130 104.378432 -0.000122 43.118673 -14.079182 17.848903 -24.230537 -7.918055 0.697007 5.172048 -16.464354 -11.243295 -0.000001 -0.000002 0.000002 -0.078882 0.036353 8.484318 0.785157 -3.214715 27.443837 -0.000000 0.000001 0.000002 0.494107 -2.981680 12.408885 0.713884 -3.073770 26.144250 0.000003 0.000000 0.000003 0.454748 -2.570282 15.487918 1.872536 -4.751234 43.001235 0.000001 0.000002 -0.000001 3.220821 -8.706838 23.715802 1.014288 -3.621213 31.285678 -0.000001 -0.000000 0.000002 0.000001 -0.000002 -0.000001 -0.000000 -0.000000 0.000000 -0.000000 -0.000000 0.000000 -0.000000 -0.000000 0.000000 -0.000000 -0.000000 0.000000 -0.000000 -0.000000 -0.000000 -0.000001 0.000000 0.000000 -0.000000 -0.000000 0.000000 -0.000000 -0.000000 -0.000000 -0.000001 0.000000 0.000000 -0.000000 -0.000000 0.000000 -0.000000 -0.000000 0.000000 -0.000000 -0.000000 0.000000 
